{"title":"What History Forgot S01E06 Rebels With a Cause DSR EN-SUB x264-W","uid":12103923,"size":399068682,"categoryP":"video","categoryS":"tv_shows","magnet":"?xt=urn:btih:d63cd1af68ce374b53eb1eea9d526894320e1915&amp;dn=What+History+Forgot+S01E06+Rebels+With+a+Cause+DSR+EN-SUB+x264-W&amp;tr=udp%3A%2F%2Ftracker.openbittorrent.com%3A80&amp;tr=udp%3A%2F%2Fopen.demonii.com%3A1337&amp;tr=udp%3A%2F%2Ftracker.coppersurfer.tk%3A6969&amp;tr=udp%3A%2F%2Fexodus.desync.com%3A6969","seeders":0,"leechers":0,"uploader":"Mulva1989","files":2,"time":1436409386,"description":"What History Forgot S01E06 Rebels With a Cause DSR EN-SUB x264-W4F\n\nThe M-1 Carbine Rifle gave American G.I.'s a fighting edge during WW2, but did you know it was invented by an ex-con busted for making Moonshine? And what about the American pilot who risked everything during the Berlin Airlift to surprise starving German kids with candy? And many believe Rosa Parks was the first lady of civil rights, but long before she refused to get off the bus in the 1950's, came a 19TH century New York activist who stood up to segregation 100 years earlier. Moniaci uncovers WHAT HISTORY FORGOT about these rebels with a cause.\n\nScreens @ &lt;a href=&quot;\nhttp://extraimago.com/images/2015/07/09/what.history.forgot.s01e06.rebels.with.a.cause.dsr.x264-w4f.mp4_snapshot_09.48_2015.07.09_02.19.56.jpg&quot; rel=&quot;nofollow&quot; target=&quot;_NEW&quot;&gt;\nhttp://extraimago.com/images/2015/07/09/what.history.forgot.s01e06.rebels.with.a.cause.dsr.x264-w4f.mp4_snapshot_09.48_2015.07.09_02.19.56.jpg&lt;/a&gt;\n &lt;a href=&quot;\nhttp://extraimago.com/images/2015/07/09/what.history.forgot.s01e06.rebels.with.a.cause.dsr.x264-w4f.mp4.jpg&quot; rel=&quot;nofollow&quot; target=&quot;_NEW&quot;&gt;\nhttp://extraimago.com/images/2015/07/09/what.history.forgot.s01e06.rebels.with.a.cause.dsr.x264-w4f.mp4.jpg&lt;/a&gt;\n\nFormat : MPEG-4\nFormat profile : Base Media\nCodec ID : isom\nFile size : 381 MiB\nDuration : 44mn 32s\nOverall bit rate mode : Variable\nOverall bit rate : 1 195 Kbps\nEncoded date : UTC 2015-07-08 22:43:25\nTagged date : UTC 2015-07-08 22:43:25\n\nVideo\nID : 1\nFormat : AVC\nFormat/Info : Advanced Video Codec\nFormat profile : &lt;a class=&quot;__cf_email__&quot; href=&quot;/cdn-cgi/l/email-protection&quot; data-cfemail=&quot;1850717f7058542b3629&quot;&gt;[email&amp;#160;protected]&lt;/a&gt;&lt;script data-cfhash='f9e31' type=&quot;text/javascript&quot;&gt;\n/* &lt;![CDATA[ */!function(){try{var t=&quot;currentScript&quot;in document?document.currentScript:function(){for(var t=document.getElementsByTagName(&quot;script&quot;),e=t.length;e--;)if(t[e].getAttribute(&quot;data-cfhash&quot;))return t[e]}();if(t&amp;&amp;t.previousSibling){var e,r,n,i,c=t.previousSibling,a=c.getAttribute(&quot;data-cfemail&quot;);if(a){for(e=&quot;&quot;,r=parseInt(a.substr(0,2),16),n=2;a.length-n;n+=2)i=parseInt(a.substr(n,2),16)^r,e+=String.fromCharCode(i);e=document.createTextNode(e),c.parentNode.replaceChild(e,c)}t.parentNode.removeChild(t);}}catch(u){}}()/* ]]&gt; */&lt;/script&gt;\nFormat settings, CABAC : Yes\nFormat settings, ReFrames : 5 frames\nCodec ID : avc1\nCodec ID/Info : Advanced Video Coding\nDuration : 44mn 30s\nBit rate : 1 061 Kbps\nMaximum bit rate : 6 819 Kbps\nWidth : 640 pixels\nHeight : 358 pixels\nDisplay aspect ratio : 16:9\nFrame rate mode : Constant\nFrame rate : 29.970 fps\nColor space : YUV\nChroma subsampling : 4:2:0\nBit depth : 8 bits\nScan type : Progressive\nBits/(Pixel*Frame) : 0.155\nStream size : 338 MiB (89%)\nWriting library : x264 core 146 r2538 121396c\nEncoding settings : cabac=1 / ref=5 / deblock=1:-1:-1 / analyse=0x3:0x113 / me=umh / subme=8 / psy=1 / psy_rd=1.00:0.15 / mixed_ref=1 / me_range=16 / chroma_me=1 / trellis=1 / 8x8dct=1 / cqm=0 / deadzone=21,11 / fast_pskip=1 / chroma_qp_offset=-3 / threads=12 / lookahead_threads=2 / sliced_threads=0 / nr=0 / decimate=1 / interlaced=0 / bluray_compat=0 / constrained_intra=0 / bframes=3 / b_pyramid=2 / b_adapt=2 / b_bias=0 / direct=3 / weightb=1 / open_gop=0 / weightp=2 / keyint=250 / keyint_min=25 / scenecut=40 / intra_refresh=0 / rc_lookahead=50 / rc=crf / mbtree=1 / crf=21.0 / qcomp=0.60 / qpmin=0 / qpmax=69 / qpstep=4 / ip_ratio=1.40 / aq=1:1.00\nEncoded date : UTC 2015-07-08 22:43:25\nTagged date : UTC 2015-07-08 22:44:09\n\nAudio\nID : 2\nFormat : AAC\nFormat/Info : Advanced Audio Codec\nFormat profile : LC\nCodec ID : 40\nDuration : 44mn 31s\nBit rate mode : Variable\nBit rate : 129 Kbps\nMaximum bit rate : 165 Kbps\nChannel(s) : 2 channels\nChannel positions : Front: L R\nSampling rate : 48.0 KHz\nCompression mode : Lossy\nStream size : 41.1 MiB (11%)\nLanguage : English\nEncoded date : UTC 2015-07-08 22:44:09\nTagged date : UTC 2015-07-08 22:44:09\n\nText\nID : 3\nFormat : Timed Text\nCodec ID : tx3g\nDuration : 44mn 32s\nBit rate mode : Variable\nBit rate : 157 bps\nStream size : 51.3 KiB (0%)\nLanguage : English\nEncoded date : UTC 2015-07-08 22:44:09\nTagged date : UTC 2015-07-08 22:44:09","torrent":{"xt":"urn:btih:d63cd1af68ce374b53eb1eea9d526894320e1915","amp;dn":"What+History+Forgot+S01E06+Rebels+With+a+Cause+DSR+EN-SUB+x264-W","amp;tr":["udp%3A%2F%2Ftracker.openbittorrent.com%3A80","udp%3A%2F%2Fopen.demonii.com%3A1337","udp%3A%2F%2Ftracker.coppersurfer.tk%3A6969","udp%3A%2F%2Fexodus.desync.com%3A6969"],"infoHash":"d63cd1af68ce374b53eb1eea9d526894320e1915","infoHashBuffer":{"type":"Buffer","data":[214,60,209,175,104,206,55,75,83,235,30,234,157,82,104,148,50,14,25,21]},"announce":[],"urlList":[]}}